# xmcd
#
# Track frame offsets:
#	150
#	10090
#	22337
#	35067
#	47318
#	59671
#	73863
#	85448
#	102517
#	115796
#	126208
#	148064
#	159472
#	174802
#	188685
#	197049
#	208012
#	219228
#	229662
#	241527
#
# Disc length: 3393 seconds
#
# Revision: 2
# Processed by: cddbd v1.5.2PL0 Copyright (c) Steve Scherf et al.
# Submitted via: EZCDAudioConverter 2.1.7.1
#
DISCID=180d3f14
DTITLE=V/A - Eccentric Soul: The Outskirts Of Deep City
DYEAR=2007
DGENRE=
TTITLE0=The Rollers - Knockin' At The Wrong Door
TTITLE1=Clarence Reid - No Way Out
TTITLE2=Helene Smith - What's In The Lovin'
TTITLE3=Betty Wright - Mr. Lucky
TTITLE4=James Knight and The Butlers - There Goes My Baby
TTITLE5=Lynn Williams - Don't Be Surprised
TTITLE6=Helene Smith - True Love Don't Grow On Trees
TTITLE7=The Rising Sun - Do What You're Doin'
TTITLE8=The Rollers - One Little Piece
TTITLE9=Clarence Reid - Don't Be A Fool
TTITLE10=Perk Badger - Do Your Stuff
TTITLE11=Frank Williams and The Rocketeers - Show Me What You Got
TTITLE12=Deep City Band - Masterpiece
TTITLE13=Helene Smith - The Pot Can't Talk About The Kettle
TTITLE14=The Rollers - Play With Fire (Part 1)
TTITLE15=Betty Wright - Thank You Baby
TTITLE16=Helene Smith - Wrong Or Right He's My Baby
TTITLE17=Nasty Dog Catchers - Nasty Dog (Part 2)
TTITLE18=The Rising Sun - One Night Affair
TTITLE19=Snoopy Dean - Your Love Won't Let Me Leave You
EXTD=
EXTT0=
EXTT1=
EXTT2=
EXTT3=
EXTT4=
EXTT5=
EXTT6=
EXTT7=
EXTT8=
EXTT9=
EXTT10=
EXTT11=
EXTT12=
EXTT13=
EXTT14=
EXTT15=
EXTT16=
EXTT17=
EXTT18=
EXTT19=
PLAYORDER=
